<?xml version="1.0" encoding="utf-8"?>
<!-- Generator: Adobe Illustrator 23.0.3, SVG Export Plug-In . SVG Version: 6.00 Build 0)  -->
<svg version="1.1" id="afdfd1e9-9b52-4ce3-aad9-0a68bb11f588"
	 xmlns="http://www.w3.org/2000/svg" xmlns:xlink="http://www.w3.org/1999/xlink" x="0px" y="0px" viewBox="0 0 1137 693.1"
	 style="enable-background:new 0 0 1137 693.1;" xml:space="preserve">
<style type="text/css">
	.st0{fill:#B7C54C;}
	.st1{fill:#63813A;}
	.st2{fill:#2F2F3F;}
	.st3{fill:#CCCCCC;}
	.st4{fill:#F2F2F2;}
	.st5{fill:#3F3D56;}
</style>
<path class="st0" d="M914.1,490.6c0.4,81.1-56.7,147.2-56.7,147.2s-57.7-66.5-58.1-147.7s56.7-147.2,56.7-147.2
	S913.8,409.4,914.1,490.6z"/>
<path class="st1" d="M355.8,665.1c-4.9-0.4-9.7,0-14.3,1.1c-2.9-14.3-15-25.6-30.3-27c-0.4,0-0.8-0.1-1.1-0.1
	c-3.4-22.5-22.8-39.7-46.3-39.7c-17.9,0-33.5,10.1-41.4,24.9c0,0,0,0,0,0c-7.7-2.3-16.1-3.2-24.8-2.1c-27,3.4-48.4,25.9-50.7,53
	c-0.5,6.1-0.1,12.1,1.2,17.8h103.5h10.8h1.1c0.1,0,0.2,0,0.3,0c0.1,0,0.2,0,0.3,0h16.9h30.2h6.2h18.3h57.2
	C387.1,677.9,373.1,666.6,355.8,665.1z"/>
<path class="st1" d="M217,621.4C217,621.4,217,621.4,217,621.4c-8.1-2.4-16.8-3.3-25.9-2.2"/>
<path class="st0" d="M334.1,617.6c-41.7,0-75.5,33.8-75.5,75.5h150.9C409.5,651.4,375.7,617.6,334.1,617.6z"/>
<title>coming home</title>
<polygon class="st2" points="337.7,182 317.3,165.6 431.7,63.5 721.7,63.5 721.7,153.4 533.8,280 "/>
<polygon class="st3" points="774.6,120.8 774.6,65.6 736,65.6 736,79.1 721.7,63.5 627.7,165.6 591,190.2 534,606.6 619.9,692.6 
	819.7,692.6 819.7,169.7 "/>
<rect x="317.3" y="165.6" class="st4" width="310.4" height="526.9"/>
<rect x="437.8" y="563.9" class="st3" width="57.2" height="128.7"/>
<polygon class="st5" points="376.5,600.7 376.5,580.3 352,580.3 352,600.7 374.5,600.7 "/>
<polygon class="st5" points="374.5,617 352,617 352,637.4 376.5,637.4 376.5,617 "/>
<rect x="392.9" y="580.3" class="st5" width="24.5" height="20.4"/>
<rect x="392.9" y="617" class="st5" width="24.5" height="20.4"/>
<polygon class="st5" points="544,600.7 544,580.3 519.5,580.3 519.5,600.7 541.9,600.7 "/>
<polygon class="st5" points="541.9,617 519.5,617 519.5,637.4 544,637.4 544,617 "/>
<rect x="560.3" y="580.3" class="st5" width="24.5" height="20.4"/>
<rect x="560.3" y="617" class="st5" width="24.5" height="20.4"/>
<polygon class="st5" points="715.6,192.2 715.6,171.8 691,171.8 691,192.2 713.5,192.2 "/>
<polygon class="st5" points="713.5,208.5 691,208.5 691,229 715.6,229 715.6,208.5 "/>
<rect x="731.9" y="171.8" class="st5" width="24.5" height="20.4"/>
<rect x="731.9" y="208.5" class="st5" width="24.5" height="20.4"/>
<polygon class="st5" points="715.6,306.6 715.6,286.1 691,286.1 691,306.6 713.5,306.6 "/>
<polygon class="st5" points="713.5,322.9 691,322.9 691,343.3 715.6,343.3 715.6,322.9 "/>
<rect x="731.9" y="286.1" class="st5" width="24.5" height="20.4"/>
<rect x="731.9" y="322.9" class="st5" width="24.5" height="20.4"/>
<polygon class="st5" points="715.6,420.9 715.6,400.5 691,400.5 691,420.9 713.5,420.9 "/>
<polygon class="st5" points="713.5,437.3 691,437.3 691,457.7 715.6,457.7 715.6,437.3 "/>
<rect x="731.9" y="400.5" class="st5" width="24.5" height="20.4"/>
<rect x="731.9" y="437.3" class="st5" width="24.5" height="20.4"/>
<polygon class="st5" points="715.6,535.3 715.6,514.9 691,514.9 691,535.3 713.5,535.3 "/>
<polygon class="st5" points="713.5,551.7 691,551.7 691,572.1 715.6,572.1 715.6,551.7 "/>
<rect x="731.9" y="514.9" class="st5" width="24.5" height="20.4"/>
<rect x="731.9" y="551.7" class="st5" width="24.5" height="20.4"/>
<rect x="352" y="192.2" class="st5" width="236.9" height="49"/>
<rect x="352" y="290.2" class="st5" width="236.9" height="49"/>
<rect x="352" y="388.3" class="st5" width="236.9" height="49"/>
<rect x="352" y="486.3" class="st5" width="236.9" height="49"/>
<rect x="190.4" y="459.6" class="st5" width="5.9" height="232.1"/>
<path class="st1" d="M250.5,489.2c0.4,81.1-56.7,147.2-56.7,147.2s-57.7-65.5-58.1-146.7s56.7-147.2,56.7-147.2
	S250.1,408,250.5,489.2z"/>
<rect x="114" y="459.6" class="st5" width="5.9" height="232.1"/>
<path class="st0" d="M174.1,489.2c0.4,81.1-56.7,147.2-56.7,147.2s-57.7-65.5-58.1-146.7s56.7-147.2,56.7-147.2
	S173.8,408,174.1,489.2z"/>
<polygon class="st5" points="853,460 859.9,461 859.9,692 853,691 "/>
</svg>
