<?xml version="1.0" encoding="utf-8"?>
<!-- Generator: Adobe Illustrator 23.0.3, SVG Export Plug-In . SVG Version: 6.00 Build 0)  -->
<svg version="1.1" id="a8904fed-7223-4ff2-9071-b444910320a0"
	 xmlns="http://www.w3.org/2000/svg" xmlns:xlink="http://www.w3.org/1999/xlink" x="0px" y="0px" viewBox="0 0 1137 518.1"
	 style="enable-background:new 0 0 1137 518.1;" xml:space="preserve">
<style type="text/css">
	.st0{fill:#3F3D56;}
	.st1{fill:#63813A;}
	.st2{fill:#B7C54C;}
	.st3{fill:#CCCCCC;}
	.st4{fill:#F2F2F2;}
	.st5{fill:#FF5668;}
</style>
<title>best place</title>
<path class="st0" d="M144.3,510.6l-2-0.4c21.8-96.8,76.4-184.6,154-247.4C487,108.6,766.6,138.1,920.8,328.9
	c42.5,52.6,72.5,114.2,87.6,180.1l-1.9,0.4C960.4,307.2,783.2,166,575.5,166C370.5,166,189.2,310.9,144.3,510.6z"/>
<rect x="877" y="437.1" class="st0" width="2" height="79"/>
<path class="st1" d="M897.5,447.1c0.1,27.6-19.3,50.1-19.3,50.1s-19.6-22.3-19.8-49.9s19.3-50.1,19.3-50.1S897.3,419.5,897.5,447.1z
	"/>
<path class="st0" d="M56.6,507.3c1.7,6.3,7.5,10.1,7.5,10.1s3.1-6.3,1.4-12.5S58,494.7,58,494.7S54.9,501,56.6,507.3z"/>
<path class="st2" d="M59.1,505.9c4.6,4.5,5.2,11.5,5.2,11.5s-7-0.4-11.6-4.9S47.5,501,47.5,501S54.5,501.4,59.1,505.9z"/>
<path class="st0" d="M668.6,507.3c1.7,6.3,7.5,10.1,7.5,10.1s3.1-6.3,1.4-12.5s-7.5-10.1-7.5-10.1S666.9,501,668.6,507.3z"/>
<path class="st2" d="M671.1,505.9c4.6,4.5,5.2,11.5,5.2,11.5s-7-0.4-11.6-4.9s-5.2-11.5-5.2-11.5S666.5,501.4,671.1,505.9z"/>
<polygon class="st0" points="68.1,460.2 64,453.3 102.6,420.2 201.9,420.2 201.9,429.9 166.1,468.5 124.7,476.8 "/>
<polygon class="st3" points="219,439.6 219,418.1 206,418.1 206,424.9 201.9,420.2 168.8,453.3 163.3,458.8 156.4,486.4 
	168.8,516.7 232.2,516.7 232.2,454.7 "/>
<rect x="64" y="453.3" class="st4" width="104.8" height="63.4"/>
<rect x="132.3" y="473.3" class="st0" width="22.1" height="19.3"/>
<rect x="104" y="472.6" class="st3" width="19.3" height="44.1"/>
<polygon class="st0" points="81.9,479.5 81.9,472.6 73.7,472.6 73.7,479.5 81.2,479.5 "/>
<polygon class="st0" points="81.2,485 73.7,485 73.7,491.9 81.9,491.9 81.9,485 "/>
<rect x="87.4" y="472.6" class="st0" width="8.3" height="6.9"/>
<rect x="87.4" y="485" class="st0" width="8.3" height="6.9"/>
<polygon class="st0" points="198.5,480.2 198.5,473.3 190.2,473.3 190.2,480.2 197.8,480.2 "/>
<polygon class="st0" points="197.8,485.7 190.2,485.7 190.2,492.6 198.5,492.6 198.5,485.7 "/>
<rect x="204" y="473.3" class="st0" width="8.3" height="6.9"/>
<rect x="204" y="485.7" class="st0" width="8.3" height="6.9"/>
<polygon class="st0" points="467.1,460.2 463,453.3 501.6,420.2 600.9,420.2 600.9,429.9 565.1,468.5 523.7,476.8 "/>
<polygon class="st3" points="618,439.6 618,418.1 605,418.1 605,424.9 600.9,420.2 567.8,453.3 562.3,458.8 555.4,486.4 
	567.8,516.7 631.2,516.7 631.2,454.7 "/>
<rect x="463" y="453.3" class="st4" width="104.8" height="63.4"/>
<rect x="531.3" y="473.3" class="st0" width="22.1" height="19.3"/>
<rect x="503" y="472.6" class="st3" width="19.3" height="44.1"/>
<polygon class="st0" points="480.9,479.5 480.9,472.6 472.7,472.6 472.7,479.5 480.2,479.5 "/>
<polygon class="st0" points="480.2,485 472.7,485 472.7,491.9 480.9,491.9 480.9,485 "/>
<rect x="486.4" y="472.6" class="st0" width="8.3" height="6.9"/>
<rect x="486.4" y="485" class="st0" width="8.3" height="6.9"/>
<polygon class="st0" points="597.5,480.2 597.5,473.3 589.2,473.3 589.2,480.2 596.8,480.2 "/>
<polygon class="st0" points="596.8,485.7 589.2,485.7 589.2,492.6 597.5,492.6 597.5,485.7 "/>
<rect x="603" y="473.3" class="st0" width="8.3" height="6.9"/>
<rect x="603" y="485.7" class="st0" width="8.3" height="6.9"/>
<polygon class="st0" points="280.5,344.4 273.6,338.8 312.2,304.4 410.1,304.4 410.1,334.7 346.7,377.5 "/>
<polygon class="st3" points="428,323.7 428,305.1 415,305.1 415,309.6 410.1,304.4 378.4,338.8 366,347.1 346.8,487.7 375.8,516.7 
	443.2,516.7 443.2,340.2 "/>
<rect x="273.6" y="338.8" class="st4" width="104.8" height="177.9"/>
<rect x="314.3" y="473.3" class="st3" width="19.3" height="43.4"/>
<polygon class="st0" points="293.6,485.7 293.6,478.8 285.3,478.8 285.3,485.7 292.9,485.7 "/>
<polygon class="st0" points="292.9,491.2 285.3,491.2 285.3,498.1 293.6,498.1 293.6,491.2 "/>
<rect x="299.1" y="478.8" class="st0" width="8.3" height="6.9"/>
<rect x="299.1" y="491.2" class="st0" width="8.3" height="6.9"/>
<polygon class="st0" points="350.2,485.7 350.2,478.8 341.9,478.8 341.9,485.7 349.5,485.7 "/>
<polygon class="st0" points="349.5,491.2 341.9,491.2 341.9,498.1 350.2,498.1 350.2,491.2 "/>
<rect x="355.7" y="478.8" class="st0" width="8.3" height="6.9"/>
<rect x="355.7" y="491.2" class="st0" width="8.3" height="6.9"/>
<polygon class="st0" points="408.1,347.8 408.1,340.9 399.8,340.9 399.8,347.8 407.4,347.8 "/>
<polygon class="st0" points="407.4,353.3 399.8,353.3 399.8,360.2 408.1,360.2 408.1,353.3 "/>
<rect x="413.6" y="340.9" class="st0" width="8.3" height="6.9"/>
<rect x="413.6" y="353.3" class="st0" width="8.3" height="6.9"/>
<polygon class="st0" points="408.1,386.4 408.1,379.5 399.8,379.5 399.8,386.4 407.4,386.4 "/>
<polygon class="st0" points="407.4,391.9 399.8,391.9 399.8,398.8 408.1,398.8 408.1,391.9 "/>
<rect x="413.6" y="379.5" class="st0" width="8.3" height="6.9"/>
<rect x="413.6" y="391.9" class="st0" width="8.3" height="6.9"/>
<polygon class="st0" points="408.1,425 408.1,418.1 399.8,418.1 399.8,425 407.4,425 "/>
<polygon class="st0" points="407.4,430.6 399.8,430.6 399.8,437.4 408.1,437.4 408.1,430.6 "/>
<rect x="413.6" y="418.1" class="st0" width="8.3" height="6.9"/>
<rect x="413.6" y="430.6" class="st0" width="8.3" height="6.9"/>
<polygon class="st0" points="408.1,463.7 408.1,456.8 399.8,456.8 399.8,463.7 407.4,463.7 "/>
<polygon class="st0" points="407.4,469.2 399.8,469.2 399.8,476.1 408.1,476.1 408.1,469.2 "/>
<rect x="413.6" y="456.8" class="st0" width="8.3" height="6.9"/>
<rect x="413.6" y="469.2" class="st0" width="8.3" height="6.9"/>
<rect x="285.3" y="347.8" class="st0" width="80" height="16.5"/>
<rect x="285.3" y="380.9" class="st0" width="80" height="16.5"/>
<rect x="285.3" y="414" class="st0" width="80" height="16.5"/>
<rect x="285.3" y="447.1" class="st0" width="80" height="16.5"/>
<polygon class="st0" points="683.5,344.4 676.6,338.8 715.2,304.4 813.1,304.4 813.1,334.7 749.7,377.5 "/>
<polygon class="st3" points="831,323.7 831,305.1 818,305.1 818,309.6 813.1,304.4 781.4,338.8 769,347.1 749.8,487.7 778.8,516.7 
	846.2,516.7 846.2,340.2 "/>
<rect x="676.6" y="338.8" class="st4" width="104.8" height="177.9"/>
<rect x="717.3" y="473.3" class="st3" width="19.3" height="43.4"/>
<polygon class="st0" points="696.6,485.7 696.6,478.8 688.3,478.8 688.3,485.7 695.9,485.7 "/>
<polygon class="st0" points="695.9,491.2 688.3,491.2 688.3,498.1 696.6,498.1 696.6,491.2 "/>
<rect x="702.1" y="478.8" class="st0" width="8.3" height="6.9"/>
<rect x="702.1" y="491.2" class="st0" width="8.3" height="6.9"/>
<polygon class="st0" points="753.2,485.7 753.2,478.8 744.9,478.8 744.9,485.7 752.5,485.7 "/>
<polygon class="st0" points="752.5,491.2 744.9,491.2 744.9,498.1 753.2,498.1 753.2,491.2 "/>
<rect x="758.7" y="478.8" class="st0" width="8.3" height="6.9"/>
<rect x="758.7" y="491.2" class="st0" width="8.3" height="6.9"/>
<polygon class="st0" points="811.1,347.8 811.1,340.9 802.8,340.9 802.8,347.8 810.4,347.8 "/>
<polygon class="st0" points="810.4,353.3 802.8,353.3 802.8,360.2 811.1,360.2 811.1,353.3 "/>
<rect x="816.6" y="340.9" class="st0" width="8.3" height="6.9"/>
<rect x="816.6" y="353.3" class="st0" width="8.3" height="6.9"/>
<polygon class="st0" points="811.1,386.4 811.1,379.5 802.8,379.5 802.8,386.4 810.4,386.4 "/>
<polygon class="st0" points="810.4,391.9 802.8,391.9 802.8,398.8 811.1,398.8 811.1,391.9 "/>
<rect x="816.6" y="379.5" class="st0" width="8.3" height="6.9"/>
<rect x="816.6" y="391.9" class="st0" width="8.3" height="6.9"/>
<polygon class="st0" points="811.1,425 811.1,418.1 802.8,418.1 802.8,425 810.4,425 "/>
<polygon class="st0" points="810.4,430.6 802.8,430.6 802.8,437.4 811.1,437.4 811.1,430.6 "/>
<rect x="816.6" y="418.1" class="st0" width="8.3" height="6.9"/>
<rect x="816.6" y="430.6" class="st0" width="8.3" height="6.9"/>
<polygon class="st0" points="811.1,463.7 811.1,456.8 802.8,456.8 802.8,463.7 810.4,463.7 "/>
<polygon class="st0" points="810.4,469.2 802.8,469.2 802.8,476.1 811.1,476.1 811.1,469.2 "/>
<rect x="816.6" y="456.8" class="st0" width="8.3" height="6.9"/>
<rect x="816.6" y="469.2" class="st0" width="8.3" height="6.9"/>
<rect x="688.3" y="347.8" class="st0" width="80" height="16.5"/>
<rect x="688.3" y="380.9" class="st0" width="80" height="16.5"/>
<rect x="688.3" y="414" class="st0" width="80" height="16.5"/>
<rect x="688.3" y="447.1" class="st0" width="80" height="16.5"/>
<polygon class="st0" points="904.5,344.4 897.6,338.8 936.2,304.4 1034.1,304.4 1034.1,334.7 970.7,377.5 "/>
<polygon class="st3" points="1052,323.7 1052,305.1 1039,305.1 1039,309.6 1034.1,304.4 1002.4,338.8 990,347.1 970.8,487.7 
	999.8,516.7 1067.2,516.7 1067.2,340.2 "/>
<rect x="897.6" y="338.8" class="st4" width="104.8" height="177.9"/>
<rect x="938.3" y="473.3" class="st3" width="19.3" height="43.4"/>
<polygon class="st0" points="917.6,485.7 917.6,478.8 909.3,478.8 909.3,485.7 916.9,485.7 "/>
<polygon class="st0" points="916.9,491.2 909.3,491.2 909.3,498.1 917.6,498.1 917.6,491.2 "/>
<rect x="923.1" y="478.8" class="st0" width="8.3" height="6.9"/>
<rect x="923.1" y="491.2" class="st0" width="8.3" height="6.9"/>
<polygon class="st0" points="974.2,485.7 974.2,478.8 965.9,478.8 965.9,485.7 973.5,485.7 "/>
<polygon class="st0" points="973.5,491.2 965.9,491.2 965.9,498.1 974.2,498.1 974.2,491.2 "/>
<rect x="979.7" y="478.8" class="st0" width="8.3" height="6.9"/>
<rect x="979.7" y="491.2" class="st0" width="8.3" height="6.9"/>
<polygon class="st0" points="1032.1,347.8 1032.1,340.9 1023.8,340.9 1023.8,347.8 1031.4,347.8 "/>
<polygon class="st0" points="1031.4,353.3 1023.8,353.3 1023.8,360.2 1032.1,360.2 1032.1,353.3 "/>
<rect x="1037.6" y="340.9" class="st0" width="8.3" height="6.9"/>
<rect x="1037.6" y="353.3" class="st0" width="8.3" height="6.9"/>
<polygon class="st0" points="1032.1,386.4 1032.1,379.5 1023.8,379.5 1023.8,386.4 1031.4,386.4 "/>
<polygon class="st0" points="1031.4,391.9 1023.8,391.9 1023.8,398.8 1032.1,398.8 1032.1,391.9 "/>
<rect x="1037.6" y="379.5" class="st0" width="8.3" height="6.9"/>
<rect x="1037.6" y="391.9" class="st0" width="8.3" height="6.9"/>
<polygon class="st0" points="1032.1,425 1032.1,418.1 1023.8,418.1 1023.8,425 1031.4,425 "/>
<polygon class="st0" points="1031.4,430.6 1023.8,430.6 1023.8,437.4 1032.1,437.4 1032.1,430.6 "/>
<rect x="1037.6" y="418.1" class="st0" width="8.3" height="6.9"/>
<rect x="1037.6" y="430.6" class="st0" width="8.3" height="6.9"/>
<polygon class="st0" points="1032.1,463.7 1032.1,456.8 1023.8,456.8 1023.8,463.7 1031.4,463.7 "/>
<polygon class="st0" points="1031.4,469.2 1023.8,469.2 1023.8,476.1 1032.1,476.1 1032.1,469.2 "/>
<rect x="1037.6" y="456.8" class="st0" width="8.3" height="6.9"/>
<rect x="1037.6" y="469.2" class="st0" width="8.3" height="6.9"/>
<rect x="909.3" y="347.8" class="st0" width="80" height="16.5"/>
<rect x="909.3" y="380.9" class="st0" width="80" height="16.5"/>
<rect x="909.3" y="414" class="st0" width="80" height="16.5"/>
<rect x="909.3" y="447.1" class="st0" width="80" height="16.5"/>
<rect x="252" y="437.1" class="st0" width="2" height="79"/>
<path class="st2" d="M272.5,447.1c0.1,27.6-19.3,50.1-19.3,50.1s-19.6-22.3-19.8-49.9s19.3-50.1,19.3-50.1S272.3,419.5,272.5,447.1z
	"/>
<rect x="452" y="437.1" class="st0" width="2" height="79"/>
<path class="st2" d="M472.5,447.1c0.1,27.6-19.3,50.1-19.3,50.1s-19.6-22.3-19.8-49.9s19.3-50.1,19.3-50.1S472.3,419.5,472.5,447.1z
	"/>
<rect x="851" y="437.1" class="st0" width="2" height="79"/>
<path class="st2" d="M871.5,447.1c0.1,27.6-19.3,50.1-19.3,50.1s-19.6-22.3-19.8-49.9s19.3-50.1,19.3-50.1S871.3,419.5,871.5,447.1z
	"/>
<ellipse class="st5" cx="587.5" cy="163.5" rx="38" ry="8.6"/>
<path class="st5" d="M630.5,44c0,24.3-44,93-44,93s-44-68.7-44-93s19.7-44,44-44S630.5,19.7,630.5,44z"/>
<circle class="st4" cx="586.5" cy="44" r="25"/>
</svg>
