<?xml version="1.0" encoding="utf-8"?>
<!-- Generator: Adobe Illustrator 23.0.3, SVG Export Plug-In . SVG Version: 6.00 Build 0)  -->
<svg version="1.1" id="Calque_1" xmlns="http://www.w3.org/2000/svg" xmlns:xlink="http://www.w3.org/1999/xlink" x="0px" y="0px"
	 viewBox="0 0 490 512.1" style="enable-background:new 0 0 490 512.1;" xml:space="preserve">
<style type="text/css">
	.st0{fill:#3F3B56;}
	.st1{fill:#FF5668;}
	.st2{fill:#E6E6E6;}
	.st3{fill:#FFFFFF;}
</style>
<g id="Group_42" transform="translate(-194 -123)">
	<path id="Path_1105" class="st0" d="M443.2,615.8h-0.1c-4.7,0-9.6-0.1-14.3-0.4l0.1-1.2c4.7,0.3,9.5,0.4,14.2,0.4h0.1L443.2,615.8z
		 M457.6,615.3l-0.1-1.2c4.8-0.3,9.6-0.7,14.3-1.3l0.1,1.2C467.2,614.6,462.4,615,457.6,615.3L457.6,615.3z M414.4,614
		c-4.8-0.6-9.6-1.3-14.3-2.2l0.2-1.2c4.7,0.9,9.5,1.6,14.2,2.2L414.4,614z M486.2,611.8l-0.2-1.2c4.7-0.9,9.4-1.9,14-3l0.3,1.2
		C495.7,609.9,490.9,611,486.2,611.8L486.2,611.8z M386,608.8c-4.7-1.2-9.3-2.5-13.9-3.9l0.4-1.2c4.6,1.4,9.2,2.7,13.8,3.9
		L386,608.8z M514.2,604.9l-0.4-1.2c4.5-1.4,9.1-3,13.6-4.7l0.4,1.1C523.4,601.8,518.8,603.4,514.2,604.9L514.2,604.9z M358.5,600.2
		c-4.5-1.7-9-3.6-13.3-5.6l0.5-1.1c4.4,2,8.8,3.9,13.3,5.6L358.5,600.2z M541.1,594.5l-0.5-1.1c4.3-2,8.7-4.1,12.9-6.4l0.6,1.1
		C549.9,590.4,545.5,592.5,541.1,594.5L541.1,594.5z M332.1,588.2c-4.2-2.3-8.5-4.7-12.6-7.2l0.6-1c4.1,2.5,8.3,4.9,12.5,7.1
		L332.1,588.2z M566.6,580.9l-0.6-1c4.1-2.5,8.1-5.2,12-7.9l0.7,1C574.8,575.8,570.7,578.4,566.6,580.9z M307.5,573.1
		c-3.9-2.8-7.9-5.7-11.6-8.7l0.7-1c3.7,3,7.6,5.9,11.6,8.6L307.5,573.1z M590.3,564.4l-0.7-1c3.8-3,7.5-6.1,11-9.3l0.8,0.9
		C597.8,558.2,594.1,561.3,590.3,564.4L590.3,564.4z M284.7,555c-3.6-3.2-7.1-6.6-10.5-10l0.8-0.9c3.4,3.4,6.9,6.8,10.5,10
		L284.7,555z M611.9,545l-0.8-0.9c3.4-3.4,6.7-7,9.8-10.6l0.9,0.8C618.6,538,615.3,541.6,611.9,545L611.9,545z M264.4,534.4
		c-3.2-3.6-6.3-7.4-9.2-11.2l0.9-0.8c2.9,3.8,6,7.5,9.2,11.1L264.4,534.4z M631.1,523.2l-0.9-0.8c2.9-3.8,5.8-7.7,8.5-11.7l1,0.7
		C636.9,515.4,634,519.3,631.1,523.2z M246.5,511.5c-2.7-4-5.4-8.1-7.8-12.2l1-0.6c2.5,4.1,5.1,8.2,7.8,12.2L246.5,511.5z
		 M647.5,499.2l-1-0.6c2.5-4.1,4.9-8.4,7.1-12.7l1.1,0.6C652.3,490.7,650,495,647.5,499.2z M231.6,486.6c-2.2-4.3-4.4-8.7-6.3-13.1
		l1.1-0.5c2,4.4,4.1,8.8,6.3,13L231.6,486.6z M660.9,473.3l-1.1-0.5c2-4.4,3.8-8.9,5.5-13.4l1.1,0.4
		C664.7,464.3,662.9,468.9,660.9,473.3L660.9,473.3z M219.8,460c-1.7-4.5-3.3-9.2-4.7-13.8l1.1-0.4c1.4,4.6,3,9.2,4.7,13.7
		L219.8,460z M671.1,446l-1.1-0.4c1.4-4.6,2.7-9.3,3.8-14l1.2,0.3C673.9,436.6,672.6,441.3,671.1,446L671.1,446z M211.2,432.2
		c-1.1-4.7-2.2-9.5-3-14.3l1.2-0.2c0.9,4.7,1.9,9.5,3,14.2L211.2,432.2z M678,417.6l-1.2-0.2c0.9-4.7,1.6-9.6,2.1-14.4l1.2,0.1
		C679.6,408,678.9,412.9,678,417.6L678,417.6z M206,403.5c-0.6-4.8-1-9.7-1.3-14.5l1.2-0.1c0.3,4.8,0.7,9.7,1.3,14.5L206,403.5z
		 M681.5,388.7l-1.2-0.1c0.3-4.8,0.4-9.7,0.4-14.5v-0.5h1.2v0.5C681.9,378.9,681.7,383.8,681.5,388.7z M205.4,374.3h-1.2v-0.3
		c0-4.8,0.1-9.6,0.4-14.3l1.2,0.1c-0.3,4.7-0.4,9.5-0.4,14.3L205.4,374.3z M680.2,359.1c-0.3-4.8-0.7-9.7-1.3-14.5l1.2-0.1
		c0.6,4.8,1,9.7,1.3,14.5L680.2,359.1z M207.1,345.4l-1.2-0.1c0.6-4.8,1.3-9.7,2.1-14.4l1.2,0.2
		C208.4,335.7,207.7,340.6,207.1,345.4z M676.8,330.2c-0.9-4.8-1.9-9.5-3-14.2l1.2-0.3c1.1,4.7,2.2,9.5,3,14.3L676.8,330.2z
		 M212.2,316.8l-1.2-0.3c1.1-4.7,2.4-9.4,3.8-14.1l1.1,0.4C214.6,307.4,213.3,312.1,212.2,316.8L212.2,316.8z M669.9,302.1
		c-1.4-4.6-3-9.2-4.7-13.7l1.1-0.4c1.7,4.5,3.3,9.2,4.7,13.8L669.9,302.1z M220.7,289l-1.1-0.4c1.7-4.5,3.6-9.1,5.5-13.5l1.1,0.5
		C224.2,280,222.4,284.5,220.7,289z M659.6,275c-2-4.4-4.1-8.8-6.3-13l1.1-0.6c2.2,4.3,4.4,8.7,6.3,13.1L659.6,275z M232.5,262.5
		l-1.1-0.6c2.2-4.3,4.6-8.6,7.1-12.7l1,0.6C237.1,254,234.7,258.3,232.5,262.5z M646.2,249.3c-2.5-4.1-5.1-8.2-7.8-12.2l1-0.7
		c2.7,4,5.4,8.1,7.9,12.2L646.2,249.3z M247.3,237.7l-1-0.7c2.7-4,5.6-7.9,8.6-11.8l0.9,0.7C252.9,229.8,250,233.7,247.3,237.7z
		 M629.9,225.5c-2.9-3.8-6-7.5-9.2-11.1l0.9-0.8c3.2,3.6,6.3,7.4,9.3,11.2L629.9,225.5z M265,214.8l-0.9-0.8
		c3.2-3.6,6.5-7.2,9.9-10.6l0.8,0.9C271.5,207.6,268.2,211.2,265,214.8z M610.8,203.8c-3.4-3.4-6.9-6.8-10.5-9.9l0.8-0.9
		c3.6,3.2,7.1,6.6,10.5,10L610.8,203.8z M285.3,194.2l-0.8-0.9c3.6-3.2,7.3-6.4,11.1-9.4l0.7,1C292.6,187.9,288.9,191,285.3,194.2z
		 M589.3,184.6c-3.8-3-7.6-5.9-11.6-8.6l0.7-1c3.9,2.8,7.9,5.7,11.6,8.6L589.3,184.6z M307.8,176.3l-0.7-1c3.9-2.8,8-5.4,12.1-7.9
		l0.6,1C315.8,170.9,311.8,173.6,307.8,176.3L307.8,176.3z M565.7,168.1c-4.1-2.5-8.3-4.9-12.5-7.1l0.6-1.1
		c4.2,2.2,8.5,4.7,12.6,7.2L565.7,168.1z M332.3,161.2l-0.6-1.1c4.2-2.3,8.6-4.4,12.9-6.4l0.5,1.1
		C340.9,156.8,336.6,159,332.3,161.2L332.3,161.2z M540.3,154.6c-4.4-2-8.8-3.8-13.3-5.5l0.4-1.1c4.5,1.7,9,3.6,13.4,5.6
		L540.3,154.6z M358.4,149.3l-0.4-1.1c4.5-1.7,9.1-3.3,13.6-4.8l0.4,1.2C367.5,146,362.9,147.6,358.4,149.3L358.4,149.3z
		 M513.4,144.3c-4.6-1.4-9.2-2.7-13.8-3.9l0.3-1.2c4.6,1.1,9.3,2.5,13.9,3.9L513.4,144.3z M385.8,140.6l-0.3-1.2
		c4.6-1.2,9.4-2.2,14.1-3.1l0.2,1.2C395.2,138.4,390.5,139.5,385.8,140.6L385.8,140.6z M485.5,137.4c-4.7-0.9-9.5-1.6-14.2-2.1
		l0.1-1.2c4.8,0.6,9.6,1.3,14.3,2.2L485.5,137.4z M414,135.4l-0.1-1.2c4.7-0.6,9.6-1,14.4-1.3l0.1,1.2
		C423.6,134.4,418.8,134.8,414,135.4L414,135.4z M457,134c-4.6-0.3-9.3-0.4-14-0.4h-0.4v-1.2h0.4c4.7,0,9.4,0.1,14,0.4L457,134z"/>
	<rect id="Rectangle_316" x="542.1" y="527.4" class="st1" width="141.9" height="107.7"/>
	<rect id="Rectangle_320" x="201.4" y="123" class="st2" width="99.1" height="75.2"/>
	<rect id="Rectangle_321" x="213.8" y="143.1" class="st3" width="74.4" height="5"/>
	<rect id="Rectangle_322" x="213.8" y="158.1" class="st3" width="74.4" height="5"/>
	<rect id="Rectangle_323" x="213.8" y="173.2" class="st3" width="74.4" height="5"/>
	<rect id="Rectangle_324" x="243.6" y="161.9" class="st1" width="99.1" height="75.2"/>
	<path id="Subtraction_1" class="st2" d="M578.5,476.4H308.2V271.5h270.3V476.4z M311,274.3v199.2h264.7V274.3H311z"/>
	<g id="Group_41" transform="translate(-9.234 -16.468)">
		<ellipse id="Ellipse_220" class="st1" cx="451.7" cy="383.5" rx="51.5" ry="52.1"/>
		<path id="Path_1106" class="st3" d="M473,379.1h-17.5v-17.7c0-2.3-1.8-4.2-4.1-4.2h0l0,0c-2.3,0-4.1,1.9-4.1,4.2v0v17.7h-17.5
			c-2.3,0-4.1,1.9-4.1,4.2v0l0,0c0,2.3,1.8,4.2,4.1,4.2h0h17.5v17.7c0,2.3,1.8,4.2,4.1,4.2h0l0,0c2.3,0,4.1-1.9,4.1-4.2v0v-17.7H473
			c2.3,0,4.1-1.9,4.1-4.2v0l0,0C477.1,381,475.3,379.1,473,379.1L473,379.1L473,379.1z"/>
	</g>
	<rect id="Rectangle_341" x="194" y="509.3" class="st2" width="99.1" height="75.2"/>
	<rect id="Rectangle_342" x="206.4" y="529.3" class="st3" width="74.4" height="5"/>
	<rect id="Rectangle_343" x="206.4" y="544.4" class="st3" width="74.4" height="5"/>
	<rect id="Rectangle_344" x="206.4" y="559.4" class="st3" width="74.4" height="5"/>
</g>
<g>
	<path class="st3" d="M432.6,474.3c-2,0-3.8-1-4.9-2.7c-0.4-0.6-1.2-0.8-1.9-0.5c-0.6,0.4-0.8,1.2-0.5,1.9c0.7,1.2,1.7,2.1,2.8,2.8
		l-1.4,6.4l-3.4-3.9c0.6-0.7,0.5-1.5-0.1-2c-0.6-0.5-1.4-0.4-1.9,0.1l-2.4,2.7l-6-6.7c0.5-1,0.8-2.1,0.9-3.2
		c11.7,3.4,23.3-5.4,23.3-17.5v-11.2c0-0.8-0.6-1.4-1.4-1.4c-0.8,0-1.4,0.6-1.4,1.4v11.2c0,8.5-6.9,15.5-15.5,15.5
		c-8.5,0-15.5-6.9-15.5-15.5v-11.5c3.3-0.2,6.1-2.3,7.1-6c5.7,3.6,12,6,18.7,6.9c0.7,0.1,1.4-0.4,1.5-1.2c0.1-0.7-0.4-1.4-1.2-1.5
		c-6.8-0.9-13.4-3.5-19.3-7.7c-0.9-0.6-2.2,0-2.1,1.1c0,0,0,3.4-2.6,4.9c-1.6,1-3.3,0.7-3.5,0.7c-0.7,0-1.3,0.5-1.4,1.2
		c0,0.1,0-0.3,0,10.9c-0.9-0.5-1.5-1.4-1.5-2.5v-16.6c0-1.8,1.4-3.2,3.2-3.2c0.6,0,1.1-0.3,1.3-0.9c1.9-4.6,6.3-7.6,11.3-7.6h11.7
		c6.7,0,12.2,5.5,12.2,12.2v16.1c0,0.8,0.6,1.4,1.4,1.4c0.8,0,1.4-0.6,1.4-1.4V431c0-8.2-6.7-14.9-14.9-14.9h-11.7
		c-5.8,0-11,3.3-13.5,8.6c-2.8,0.4-5,2.9-5,5.9v16.6c0,2.6,1.8,4.8,4.3,5.4c0.3,6.9,4.4,12.9,10.4,15.7v0.4c0,1.5-0.6,2.9-1.7,4
		c-1.9,1.9-4.3,1.7-4,1.7c-7.8,0-14,6.3-14,14v8c0,0.8,0.6,1.4,1.4,1.4s1.4-0.6,1.4-1.4v-8c0-6.3,5.1-11.3,11.3-11.3
		c0.6,0,1.2-0.1,1.8-0.2l1.9,8.6c0.2,1.1,1.6,1.4,2.4,0.6l2.7-3.1l-1.7,13.2c-0.1,0.7,0.4,1.4,1.2,1.5c0.7,0.1,1.4-0.4,1.5-1.2
		l1.9-15.3c0.1,0.1,0.8,0.9,0.9,1c0.6,0.5,1.4,0.4,1.9-0.1c0.3-0.3-0.4,0.5,0.8-0.9l1.9,15.3c0.1,0.7,0.8,1.3,1.5,1.2
		c0.7-0.1,1.3-0.8,1.2-1.5l-1.7-13.2l2.7,3.1c0.7,0.8,2.1,0.5,2.4-0.6l1.9-8.6c0.6,0.1,1.2,0.2,1.8,0.2c6.3,0,11.3,5.1,11.3,11.3v8
		c0,0.8,0.6,1.4,1.4,1.4c0.8,0,1.4-0.6,1.4-1.4v-8C446.6,480.6,440.3,474.3,432.6,474.3L432.6,474.3z M411.3,482.2l-1.4-6.4
		c0.5-0.3,1-0.7,1.5-1.1l3.3,3.7L411.3,482.2z"/>
</g>
<g>
	<path class="st3" d="M115.8,91l-2.2,2.2c0.6,1.2,0.9,2.6,0.9,4.1v5.3c0,0.5-0.4,0.9-0.9,0.9s-0.9-0.4-0.9-0.9v-5.3
		c0-3.9-3-7.1-6.9-7.4l-3.7,13c-0.1,0.4-0.5,0.7-0.9,0.7c-0.6,0-1-0.6-0.9-1.1l3.6-12.7c-1.5-0.3-2.7-1.2-3.5-2.5
		c-0.3-0.4-0.1-1,0.3-1.2c0.4-0.3,1-0.1,1.2,0.3c0.7,1.1,1.8,1.7,3,1.8c0.1,0,0.2,0,0.3,0c2.8,0,5.4,1.3,7.2,3.6l1.9-1.9
		c0.7-0.7,0.8-1.9,0.2-2.7c-1.4-1.8-1.1-4,0.3-5.3c0.8-0.7,0.9-1.9,0.2-2.8l-1.3-1.6c-0.8-1-1-2.3-0.7-3.5l0.8-2.8
		c0.3-1-0.2-2.1-1.2-2.5l-1.1-0.5c-1.4-0.6-2.4-2-2.4-3.6v-2.9c0-5.7-4.6-10.3-10.3-10.3h-5.4c-5.7,0-10.3,4.6-10.3,10.3v2.9
		c0,1.6-0.9,3-2.4,3.6l-1.1,0.5c-1,0.4-1.5,1.5-1.2,2.5l0.8,2.8c0.4,1.2,0.1,2.5-0.7,3.5L77.6,79c-0.7,0.8-0.6,2,0.2,2.8
		c1.4,1.3,1.7,3.5,0.3,5.3c-0.6,0.8-0.6,2,0.2,2.7l1.9,1.9c1.7-2.3,4.4-3.6,7.4-3.6c2.1,0,3.8-1.7,3.8-3.7V84
		c-3.7-1.8-6.2-5.3-6.7-9.2c-0.1-0.5,0.3-0.9,0.8-1c0.5-0.1,0.9,0.3,1,0.8c0.7,5,5,8.8,10.1,8.8c5.6,0,10.2-4.6,10.2-10.2v-5.5
		c-2.1-0.8-3.9-2.2-5.1-4.3c-4.3,5-10.5,8-17.1,8.2c-0.5,0-0.9-0.4-0.9-0.9c0-0.5,0.4-0.9,0.9-0.9c6.5-0.3,12.6-3.3,16.6-8.6
		c0.4-0.6,1.3-0.4,1.5,0.2c0.9,2.4,2.9,4.1,5.2,4.7c0.3,0.1,0.6,0.4,0.6,0.8c0,0.1,0,6.3,0,6.3c-0.1,7.9-7.7,13.7-15.4,11.4
		c-0.1,1.5-0.8,2.9-2.1,3.9l5.4,4.2l3.2-2.5c0.4-0.3,1-0.2,1.3,0.2c0.3,0.4,0.2,1-0.2,1.3l-3.4,2.6v6.4c0,0.5-0.4,0.9-0.9,0.9
		s-0.9-0.4-0.9-0.9v-6.4l-6.3-4.9c-1,0.3-1.8,0.3-1.7,0.3c-4.1,0-7.5,3.3-7.5,7.5v5.3c0,0.5-0.4,0.9-0.9,0.9s-0.9-0.4-0.9-0.9v-5.3
		c0-1.4,0.3-2.8,0.9-4.1L77,91c-1.3-1.3-1.6-3.4-0.2-5.2c0.7-0.8,0.6-2-0.2-2.8c-1.4-1.4-1.6-3.6-0.4-5.2l1.3-1.6
		c0.4-0.5,0.5-1.2,0.4-1.9L77,71.6c-0.6-1.9,0.4-3.9,2.2-4.6l1.1-0.5c0.8-0.3,1.3-1.1,1.3-1.9v-2.9c0-6.7,5.4-12.1,12.1-12.1h5.4
		c6.7,0,12.1,5.4,12.1,12.1v2.9c0,0.8,0.5,1.6,1.3,1.9l1.1,0.5c1.8,0.7,2.8,2.7,2.2,4.6l-0.8,2.8c-0.2,0.6-0.1,1.3,0.4,1.9l1.3,1.6
		c1.2,1.5,1.1,3.8-0.4,5.2c-0.8,0.7-0.9,1.9-0.2,2.8C117.4,87.5,117.1,89.7,115.8,91L115.8,91z M89.6,92.7c-0.1-0.5-0.6-0.8-1.1-0.6
		c-0.5,0.1-0.8,0.6-0.6,1.1l2.7,9.5c0.1,0.5,0.6,0.8,1.1,0.6c0.5-0.1,0.8-0.6,0.6-1.1L89.6,92.7z"/>
</g>
</svg>
